<svg width="400" height="300" viewBox="0 0 400 300" xmlns="http://www.w3.org/2000/svg">
  <rect width="400" height="300" fill="#f8fafc" stroke="#e2e8f0" stroke-width="2"/>
  
  <!-- Header -->
  <rect x="0" y="0" width="400" height="60" fill="#2563eb"/>
  <text x="20" y="35" font-family="Arial, sans-serif" font-size="18" font-weight="bold" fill="white">
    Cloud Testing Strategy
  </text>
  
  <!-- Content area -->
  <rect x="20" y="80" width="360" height="2" fill="#e2e8f0"/>
  
  <!-- Main content blocks -->
  <rect x="20" y="100" width="100" height="80" fill="#dbeafe" rx="4"/>
  <text x="30" y="125" font-family="Arial, sans-serif" font-size="12" font-weight="bold" fill="#1e40af">
    Testing Framework
  </text>
  <text x="30" y="145" font-family="Arial, sans-serif" font-size="10" fill="#374151">
    • Automated testing
  </text>
  <text x="30" y="160" font-family="Arial, sans-serif" font-size="10" fill="#374151">
    • Performance metrics
  </text>
  <text x="30" y="175" font-family="Arial, sans-serif" font-size="10" fill="#374151">
    • Scalability tests
  </text>
  
  <rect x="140" y="100" width="100" height="80" fill="#ecfdf5" rx="4"/>
  <text x="150" y="125" font-family="Arial, sans-serif" font-size="12" font-weight="bold" fill="#059669">
    Results Analysis
  </text>
  <text x="150" y="145" font-family="Arial, sans-serif" font-size="10" fill="#374151">
    • 99.9% uptime
  </text>
  <text x="150" y="160" font-family="Arial, sans-serif" font-size="10" fill="#374151">
    • Load optimization
  </text>
  <text x="150" y="175" font-family="Arial, sans-serif" font-size="10" fill="#374151">
    • Error reduction
  </text>
  
  <rect x="260" y="100" width="120" height="80" fill="#fef3c7" rx="4"/>
  <text x="270" y="125" font-family="Arial, sans-serif" font-size="12" font-weight="bold" fill="#d97706">
    Implementation
  </text>
  <text x="270" y="145" font-family="Arial, sans-serif" font-size="10" fill="#374151">
    • Cloud infrastructure
  </text>
  <text x="270" y="160" font-family="Arial, sans-serif" font-size="10" fill="#374151">
    • CI/CD integration
  </text>
  <text x="270" y="175" font-family="Arial, sans-serif" font-size="10" fill="#374151">
    • Monitoring setup
  </text>
  
  <!-- Chart representation -->
  <rect x="20" y="200" width="360" height="2" fill="#e2e8f0"/>
  <text x="20" y="225" font-family="Arial, sans-serif" font-size="14" font-weight="bold" fill="#1f2937">
    Performance Metrics
  </text>
  
  <!-- Simple bar chart -->
  <rect x="50" y="240" width="20" height="40" fill="#3b82f6"/>
  <rect x="80" y="235" width="20" height="45" fill="#10b981"/>
  <rect x="110" y="245" width="20" height="35" fill="#f59e0b"/>
  <rect x="140" y="230" width="20" height="50" fill="#ef4444"/>
  
  <text x="45" y="295" font-family="Arial, sans-serif" font-size="8" fill="#6b7280">Load</text>
  <text x="75" y="295" font-family="Arial, sans-serif" font-size="8" fill="#6b7280">Speed</text>
  <text x="105" y="295" font-family="Arial, sans-serif" font-size="8" fill="#6b7280">Memory</text>
  <text x="135" y="295" font-family="Arial, sans-serif" font-size="8" fill="#6b7280">CPU</text>
  
  <!-- PDF indicator -->
  <circle cx="370" cy="30" r="15" fill="#dc2626"/>
  <text x="365" y="35" font-family="Arial, sans-serif" font-size="10" font-weight="bold" fill="white">PDF</text>
</svg>