<svg width="400" height="300" viewBox="0 0 400 300" xmlns="http://www.w3.org/2000/svg">
  <rect width="400" height="300" fill="#f8fafc" stroke="#e2e8f0" stroke-width="2"/>
  
  <!-- Header -->
  <rect x="0" y="0" width="400" height="60" fill="#7c3aed"/>
  <text x="20" y="35" font-family="Arial, sans-serif" font-size="18" font-weight="bold" fill="white">
    Test Parameter Optimization
  </text>
  
  <!-- Content area -->
  <rect x="20" y="80" width="360" height="2" fill="#e2e8f0"/>
  
  <!-- Parameter sections -->
  <rect x="20" y="100" width="85" height="80" fill="#f5f3ff" rx="4"/>
  <text x="30" y="120" font-family="Arial, sans-serif" font-size="11" font-weight="bold" fill="#7c3aed">
    Input Parameters
  </text>
  <text x="30" y="140" font-family="Arial, sans-serif" font-size="9" fill="#374151">
    • Data types
  </text>
  <text x="30" y="155" font-family="Arial, sans-serif" font-size="9" fill="#374151">
    • Value ranges
  </text>
  <text x="30" y="170" font-family="Arial, sans-serif" font-size="9" fill="#374151">
    • Edge cases
  </text>
  
  <rect x="115" y="100" width="85" height="80" fill="#ecfdf5" rx="4"/>
  <text x="125" y="120" font-family="Arial, sans-serif" font-size="11" font-weight="bold" fill="#059669">
    Configuration
  </text>
  <text x="125" y="140" font-family="Arial, sans-serif" font-size="9" fill="#374151">
    • Environment
  </text>
  <text x="125" y="155" font-family="Arial, sans-serif" font-size="9" fill="#374151">
    • Resources
  </text>
  <text x="125" y="170" font-family="Arial, sans-serif" font-size="9" fill="#374151">
    • Dependencies
  </text>
  
  <rect x="210" y="100" width="85" height="80" fill="#fef3c7" rx="4"/>
  <text x="220" y="120" font-family="Arial, sans-serif" font-size="11" font-weight="bold" fill="#d97706">
    Performance
  </text>
  <text x="220" y="140" font-family="Arial, sans-serif" font-size="9" fill="#374151">
    • Load limits
  </text>
  <text x="220" y="155" font-family="Arial, sans-serif" font-size="9" fill="#374151">
    • Response time
  </text>
  <text x="220" y="170" font-family="Arial, sans-serif" font-size="9" fill="#374151">
    • Throughput
  </text>
  
  <rect x="305" y="100" width="75" height="80" fill="#fce7f3" rx="4"/>
  <text x="315" y="120" font-family="Arial, sans-serif" font-size="11" font-weight="bold" fill="#be185d">
    Validation
  </text>
  <text x="315" y="140" font-family="Arial, sans-serif" font-size="9" fill="#374151">
    • Assertions
  </text>
  <text x="315" y="155" font-family="Arial, sans-serif" font-size="9" fill="#374151">
    • Checkpoints
  </text>
  <text x="315" y="170" font-family="Arial, sans-serif" font-size="9" fill="#374151">
    • Reporting
  </text>
  
  <!-- Optimization matrix -->
  <rect x="20" y="200" width="360" height="2" fill="#e2e8f0"/>
  <text x="20" y="225" font-family="Arial, sans-serif" font-size="14" font-weight="bold" fill="#1f2937">
    Optimization Matrix
  </text>
  
  <!-- Grid representation -->
  <rect x="50" y="240" width="80" height="15" fill="#dbeafe" rx="2"/>
  <text x="55" y="251" font-family="Arial, sans-serif" font-size="8" fill="#1e40af">Baseline Tests</text>
  
  <rect x="140" y="240" width="80" height="15" fill="#dcfce7" rx="2"/>
  <text x="145" y="251" font-family="Arial, sans-serif" font-size="8" fill="#166534">Optimized Tests</text>
  
  <rect x="230" y="240" width="80" height="15" fill="#fed7aa" rx="2"/>
  <text x="235" y="251" font-family="Arial, sans-serif" font-size="8" fill="#c2410c">Performance Tests</text>
  
  <!-- Performance indicators -->
  <rect x="50" y="260" width="60" height="8" fill="#3b82f6"/>
  <rect x="140" y="260" width="85" height="8" fill="#10b981"/>
  <rect x="230" y="260" width="75" height="8" fill="#f59e0b"/>
  
  <text x="50" y="280" font-family="Arial, sans-serif" font-size="8" fill="#6b7280">60% efficiency</text>
  <text x="140" y="280" font-family="Arial, sans-serif" font-size="8" fill="#6b7280">85% efficiency</text>
  <text x="230" y="280" font-family="Arial, sans-serif" font-size="8" fill="#6b7280">75% efficiency</text>
  
  <!-- PDF indicator -->
  <circle cx="370" cy="30" r="15" fill="#dc2626"/>
  <text x="365" y="35" font-family="Arial, sans-serif" font-size="10" font-weight="bold" fill="white">PDF</text>
</svg>